<svg xmlns="http://www.w3.org/2000/svg" xmlns:xlink="http://www.w3.org/1999/xlink" width="500" zoomAndPan="magnify" viewBox="0 0 375 374.999991" height="500" preserveAspectRatio="xMidYMid meet" version="1.0"><defs><clipPath id="051e99cb68"><path d="M 42.855469 42.855469 L 332.144531 42.855469 L 332.144531 332.144531 L 42.855469 332.144531 Z M 42.855469 42.855469 " clip-rule="nonzero"/></clipPath><clipPath id="c1af263ffd"><path d="M 187.5 42.855469 C 107.617188 42.855469 42.855469 107.617188 42.855469 187.5 C 42.855469 267.382812 107.617188 332.144531 187.5 332.144531 C 267.382812 332.144531 332.144531 267.382812 332.144531 187.5 C 332.144531 107.617188 267.382812 42.855469 187.5 42.855469 Z M 187.5 42.855469 " clip-rule="nonzero"/></clipPath><clipPath id="b49801153f"><path d="M 0.855469 0.855469 L 290.144531 0.855469 L 290.144531 290.144531 L 0.855469 290.144531 Z M 0.855469 0.855469 " clip-rule="nonzero"/></clipPath><clipPath id="5d926479fa"><path d="M 145.5 0.855469 C 65.617188 0.855469 0.855469 65.617188 0.855469 145.5 C 0.855469 225.382812 65.617188 290.144531 145.5 290.144531 C 225.382812 290.144531 290.144531 225.382812 290.144531 145.5 C 290.144531 65.617188 225.382812 0.855469 145.5 0.855469 Z M 145.5 0.855469 " clip-rule="nonzero"/></clipPath><clipPath id="58aba79029"><rect x="0" width="291" y="0" height="291"/></clipPath></defs><rect x="-37.5" width="450" fill="#ffffff" y="-37.499999" height="449.999989" fill-opacity="1"/><rect x="-37.5" width="450" fill="#ffffff" y="-37.499999" height="449.999989" fill-opacity="1"/><g clip-path="url(#051e99cb68)"><g clip-path="url(#c1af263ffd)"><g transform="matrix(1, 0, 0, 1, 42, 42)"><g clip-path="url(#58aba79029)"><g clip-path="url(#b49801153f)"><g clip-path="url(#5d926479fa)"><path fill="#000000" d="M 0.855469 0.855469 L 290.144531 0.855469 L 290.144531 290.144531 L 0.855469 290.144531 Z M 0.855469 0.855469 " fill-opacity="1" fill-rule="nonzero"/></g></g></g></g></g></g></svg>